<svg xmlns="http://www.w3.org/2000/svg" viewBox="0 0 64 64" role="img" aria-label="AI 통화 도우미 파비콘">
  <rect x="4" y="4" width="56" height="56" rx="14" fill="#fff8ef" stroke="#fdba74" stroke-width="2"/>

  <path d="M37 10h12.2c3.4 0 6 2.6 6 6v5.1c0 3.4-2.6 6-6 6h-2.8L41 32v-4.8h-4c-3.4 0-6-2.6-6-6V16c0-3.4 2.6-6 6-6z" fill="none" stroke="#ea580c" stroke-width="2.8" stroke-linejoin="round"/>
  <circle cx="41.9" cy="18.6" r="1.4" fill="#ea580c"/>
  <circle cx="46.7" cy="18.6" r="1.4" fill="#ea580c"/>
  <circle cx="51.5" cy="18.6" r="1.4" fill="#ea580c"/>

  <g transform="translate(0 2) translate(30 32) scale(1.2) translate(-30 -32)">
    <path d="M18.5 18c-1.8 0-3.2 1.4-3.2 3.2 0 14 11.3 25.3 25.3 25.3 1.8 0 3.2-1.4 3.2-3.2v-4.3c0-1.4-1-2.6-2.3-2.9L35.8 35c-1-.2-2.1.1-2.8 1l-1.3 1.6c-3.8-1.9-6.9-5-8.8-8.8l1.6-1.3c.8-.7 1.2-1.8 1-2.8l-1.2-5.7c-.3-1.3-1.5-2.3-2.9-2.3z" fill="none" stroke="#7c2d12" stroke-width="3.3" stroke-linejoin="round" stroke-linecap="round"/>
  </g>
</svg>
