<svg xmlns="http://www.w3.org/2000/svg" viewBox="0 0 64 64" role="img" aria-label="AI 통화 도우미 파비콘">
  <defs>
    <linearGradient id="bg" x1="0" y1="0" x2="0" y2="1">
      <stop offset="0%" stop-color="#fff8ef"/>
      <stop offset="100%" stop-color="#ffe7cc"/>
    </linearGradient>
  </defs>

  <rect x="4" y="4" width="56" height="56" rx="14" fill="url(#bg)" stroke="#f6ad72" stroke-width="2"/>

  <path d="M36.5 10.5h13c3.3 0 6 2.7 6 6v5.2c0 3.3-2.7 6-6 6h-3L41 33v-5.3h-4.5c-3.3 0-6-2.7-6-6v-5.2c0-3.3 2.7-6 6-6z" fill="#fffdf8" stroke="#ea580c" stroke-width="2.2" stroke-linejoin="round"/>
  <circle cx="41.8" cy="19.4" r="1.4" fill="#ea580c"/>
  <circle cx="46.8" cy="19.4" r="1.4" fill="#ea580c"/>
  <circle cx="51.8" cy="19.4" r="1.4" fill="#ea580c"/>

  <path d="M19 18.2c-1.7 0-3.1 1.4-3.1 3.1 0 13.9 11.2 25.1 25.1 25.1 1.7 0 3.1-1.4 3.1-3.1v-4.1c0-1.4-0.9-2.5-2.2-2.8l-5.6-1.2c-1-.2-2.1.1-2.8.9l-1.3 1.6c-3.7-1.9-6.7-4.9-8.6-8.6l1.6-1.3c0.8-.7 1.2-1.8 0.9-2.8l-1.2-5.6c-0.3-1.3-1.4-2.2-2.8-2.2z" fill="none" stroke="#7a3418" stroke-width="3.5" stroke-linecap="round" stroke-linejoin="round"/>
</svg>
