<svg xmlns="http://www.w3.org/2000/svg" viewBox="0 0 64 64" role="img" aria-label="초등 학부모 AI 도우미">
  <defs>
    <linearGradient id="bg" x1="0" y1="0" x2="1" y2="1">
      <stop offset="0%" stop-color="#0ea5a4"/>
      <stop offset="100%" stop-color="#2563eb"/>
    </linearGradient>
  </defs>
  <rect width="64" height="64" rx="14" fill="url(#bg)"/>
  <path d="M14 22c0-3.3 2.7-6 6-6h24c3.3 0 6 2.7 6 6v14c0 3.3-2.7 6-6 6H30l-8 7v-7h-2c-3.3 0-6-2.7-6-6z" fill="#ffffff" opacity="0.95"/>
  <path d="M24 30h16M24 35h10" stroke="#0f766e" stroke-width="2.6" stroke-linecap="round"/>
  <path d="M50 13l1.2 2.8L54 17l-2.8 1.2L50 21l-1.2-2.8L46 17l2.8-1.2z" fill="#fde047"/>
  <circle cx="18" cy="16" r="2" fill="#a7f3d0"/>
</svg>
